<svg class="header__basket-icon" width=" 40" height="36" fill="none" xmlns="http://www.w3.org/2000/svg">
  <path class="fill-white"
        d="M1.818 13.239h8.71L18.49.806c.345-.55.927-.806 1.509-.806.582 0 1.164.266 1.51.806L29.47 13.24h8.71c.28 0 .556.069.808.2.251.13.47.319.64.552a1.983 1.983 0 01.305 1.658L35.326 33.23a3.812 3.812 0 01-1.309 2c-.633.5-1.406.77-2.2.77H8.182a3.527 3.527 0 01-2.2-.772 3.79 3.79 0 01-1.3-2.007L.072 15.638A1.761 1.761 0 010 15.136c0-1.043.818-1.897 1.818-1.897zm23.636 0L20 4.894l-5.455 8.345h10.91z" />
</svg>
