<svg class="whatsapp__icon whatsapp__icon--mobile" width="40" height="40" viewBox="0 0 40 40" fill="none"
     xmlns="http://www.w3.org/2000/svg">
  <circle class="fill-whatsapp" cx="20" cy="20" r="20" />
  <path class="fill-white"
        d="M28.5 14.625c-3-4.625-9.125-6-13.875-3.125C10 14.375 8.5 20.625 11.5 25.25l.25.375-1 3.75 3.75-1 .375.25C16.5 29.5 18.25 30 20 30c1.875 0 3.75-.5 5.375-1.5 4.625-3 6-9.125 3.125-13.875zm-2.625 9.625c-.5.75-1.125 1.25-2 1.375-.5 0-1.125.25-3.625-.75-2.125-1-3.875-2.625-5.125-4.5-.75-.875-1.125-2-1.25-3.125 0-1 .375-1.875 1-2.5.25-.25.5-.375.75-.375h.625c.25 0 .5 0 .625.5.25.625.875 2.125.875 2.25a.38.38 0 010 .5c.125.25 0 .5-.125.625s-.25.375-.375.5c-.25.125-.375.375-.25.625.5.75 1.125 1.5 1.75 2.125.75.625 1.5 1.125 2.375 1.5.25.125.5.125.625-.125s.75-.875 1-1.125.375-.25.625-.125l2 1c.25.125.5.25.625.375.125.375.125.875-.125 1.25z" />
</svg>
