<svg class="orders__phone-icon" width="40" height="40" viewBox="0 0 40 40" fill="none" xmlns="http://www.w3.org/2000/svg"><circle class="fill-phone" cx="20" cy="20" r="20"/><g class="fill-white"><path d="M14.108 12.148c-.383-.877-.803-.896-1.168-.913-.298-.019-.647-.019-.997-.019-.348 0-.908.125-1.378.664-.471.537-1.815 1.825-1.815 4.439 0 2.613 1.849 5.14 2.111 5.495.262.36 3.596 5.891 8.867 8.02 4.381 1.773 5.27 1.415 6.23 1.326.943-.089 3.073-1.29 3.51-2.524.435-1.235.435-2.31.295-2.525-.122-.215-.47-.359-.995-.626-.523-.27-3.071-1.558-3.542-1.738-.472-.178-.821-.268-1.17.27-.35.536-1.344 1.736-1.64 2.077-.298.357-.61.393-1.117.125-.523-.269-2.183-.824-4.171-2.632-1.536-1.414-2.582-3.15-2.88-3.688-.297-.536-.037-.823.226-1.093.227-.231.523-.626.786-.93.261-.304.349-.536.523-.895.175-.358.087-.662-.034-.93-.174-.215-1.188-2.847-1.641-3.903zm6.837 1.35a4.444 4.444 0 013.163 1.336 4.601 4.601 0 011.313 3.218 4.49 4.49 0 01-.739 2.5l.754.374a5.495 5.495 0 00.14-5.492 5.377 5.377 0 00-1.95-2.04 5.256 5.256 0 00-2.698-.753 5.34 5.34 0 00-3.37 1.215l.35.82a4.485 4.485 0 013.037-1.178z"/><path d="M22.244 10c1.73.003 3.39.703 4.613 1.948a6.71 6.71 0 011.915 4.694c0 1.339-.58 2.892-1.247 3.945l1.107.553C29.386 19.927 30 18.177 30 16.642a7.966 7.966 0 00-2.273-5.58 7.693 7.693 0 00-5.483-2.312 7.547 7.547 0 00-4.896 1.786l.508 1.195A6.422 6.422 0 0122.244 10zm-2.562 6.303c-.807 0-1.545.267-2.123.73l.297.715a2.743 2.743 0 012.986-.442c.488.226.9.59 1.19 1.048.288.458.442.992.44 1.536 0 .43-.087.822-.264 1.18l.649.321a3.62 3.62 0 00.335-1.518c.017-1.947-1.563-3.57-3.51-3.57z"/></g></svg>