<svg width="29" height="28" viewBox="0 0 29 28" fill="none" xmlns="http://www.w3.org/2000/svg"><path fill="#49525c" d="M29 26c0 1-1 2-2 2H2c-1 0-2-1-2-2V2c0-1 1-2 2-2h25c1 0 2 1 2 2v24z"/><path fill="#cdcdcd" fill-rule="evenodd" clip-rule="evenodd" d="M27 28H2c-1 0-2-1-2-2V2c0-1 1-2 2-2h25c1 0 2 1 2 2v24c0 1-1 2-2 2zm-5-10.416C22 21.966 19.982 25 15.424 25c-1.457 0-3.213-.524-3.848-2.06h-.15l-.523 1.61H6.607V9.195H5V5h6.501v7.191h.112c.71-1.273 2.13-1.948 3.923-1.948 3.288.038 6.464 2.323 6.464 7.341zm-4.932 0c0-1.797-1.42-3.034-2.802-3.034-1.495 0-2.765 1.499-2.765 3.034 0 2.247 1.495 3.296 2.914 3.296 1.27 0 2.653-1.236 2.653-3.296zM23.68 10C25.288 10 26 8.938 26 7.405c0-1.757-1.12-2.557-2.281-2.57-.633 0-1.134.236-1.385.682h-.04V3H20v1.468h.567v5.375h1.517l.184-.564h.053c.224.538.844.721 1.358.721zm-.409-3.657c.488 0 .99.432.99 1.062 0 .72-.489 1.153-.937 1.153-.501 0-1.028-.367-1.028-1.153 0-.538.448-1.062.975-1.062z"/></svg>