<svg width="29" height="28" viewBox="0 0 29 28" fill="none" xmlns="http://www.w3.org/2000/svg"><path fill="#cdcdcd" d="M29 26c0 1-1 2-2 2H2c-1 0-2-1-2-2V2c0-1 1-2 2-2h25c1 0 2 1 2 1.935V26z"/><path fill="#49525c" d="M12.39 23.39c.482-1.496.995-2.963 1.477-4.46 2.442 1.228 4.04 1.078 5.697-.418 1.87-1.676 2.653-5.088 1.718-7.423-1.175-2.993-4.762-4.46-8.29-3.412-3.345.988-5.244 3.95-4.611 7.123.27 1.317.844 2.006 2.441 2.544-.09-.718 0-1.376-.24-1.885-.905-1.976-.272-4.31 1.567-5.567 1.748-1.227 4.702-1.078 6.059.27 1.718 1.705 1.145 6.434-1.025 7.572-.573.299-1.598.299-2.11-.03-.422-.27-.543-1.227-.483-1.856.09-.928.603-1.856.664-2.784.03-.598-.483-1.646-.814-1.676-.603-.06-1.417.39-1.9.838-.331.33-.512 1.108-.391 1.617.512 1.945-.362 3.651-.663 5.477-.181 1.167-.453 2.334-.694 3.472-4.22-1.257-6.873-6.974-5.366-11.793 1.658-5.297 7.235-8.2 12.54-6.525 5.336 1.706 8.26 7.274 6.542 12.481-1.658 5.118-7.205 8.052-12.118 6.435z"/></svg>