<svg width="29" height="28" viewBox="0 0 29 28" fill="none" xmlns="http://www.w3.org/2000/svg"><path fill="#cdcdcd" d="M29 26c0 1-1 2-2 2H2c-1 0-2-1-2-2V2c0-1 1-2 2-2h25c1 0 2 1 2 2v24z"/><path fill="#49525c" d="M25 7.925a8.217 8.217 0 01-2.356.645 4.114 4.114 0 001.804-2.27 8.196 8.196 0 01-2.606.995 4.104 4.104 0 00-6.992 3.743A11.652 11.652 0 016.393 6.75a4.104 4.104 0 001.27 5.479 4.093 4.093 0 01-1.859-.513v.053a4.105 4.105 0 003.292 4.023 4.132 4.132 0 01-1.853.07 4.106 4.106 0 003.833 2.85 8.234 8.234 0 01-5.097 1.756c-.33 0-.657-.019-.979-.057a11.605 11.605 0 006.29 1.844c7.548 0 11.674-6.252 11.674-11.675 0-.176-.004-.354-.012-.53a8.341 8.341 0 002.046-2.123L25 7.925z"/></svg>