<svg width="112" height="32" viewBox="0 0 112 32" fill="none" xmlns="http://www.w3.org/2000/svg">
  <path d="M38.01 22.837V9.97h5.512v12.459l7.796-2.394L42.099 0 0 2.248 8.247 22.02V9.796h5.801c.66.025 1.541.096 2.385.171 3.727.342 5.327 2.251 5.327 4.786 0 2.535-3.499 4.272-6.905 4.272-.39 0-.749-.009-1.078-.024v3.834H8.592l3.82 9.16 29.77-9.159H38.01v.001zm-1.994-3.612v2.953c-11.444 2.793-13.706-2.662-13.706-6.234 0-3.57 4.08-7.811 13.649-5.576l.065 3.192c-6.847-1.661-7.846 1.586-7.846 2.846s1.342 4.9 7.838 2.827v-.008zm4.867-16.658a3.44 3.44 0 011.842.53c.54.34.964.832 1.221 1.415.251.576.317 1.21.19 1.822a3.11 3.11 0 01-.907 1.615c-.471.444-1.06.744-1.696.863a3.47 3.47 0 01-1.915-.179 3.284 3.284 0 01-1.488-1.162 3.045 3.045 0 01-.559-1.751 3.081 3.081 0 01.97-2.23 3.401 3.401 0 012.342-.923"
        fill="#2C6F76" />
  <path d="M16.582 14.333c0-.887-.56-1.485-1.868-1.606a15.818 15.818 0 00-.837-.06h-.337v3.234h.618c1.194 0 2.42-.685 2.42-1.567l.004-.001zm39.404.396c.346.197.738.302 1.137.304.65 0 1.029-.326 1.029-.797 0-.438-.262-.684-.927-.93-.803-.272-1.298-.667-1.298-1.326 0-.73.636-1.272 1.591-1.272.378-.011.753.068 1.09.231l-.18.493a2.03 2.03 0 00-.934-.223c-.67 0-.925.38-.925.7 0 .439.298.654.977.903.832.306 1.257.684 1.257 1.367 0 .721-.56 1.347-1.72 1.347a2.642 2.642 0 01-1.257-.299l.16-.5v.002zm4.02-.834c.013.826.568 1.166 1.21 1.166.335.01.669-.048.978-.17l.108.437c-.37.147-.77.219-1.173.208-1.088 0-1.736-.684-1.736-1.693 0-1.011.626-1.812 1.655-1.812 1.154 0 1.459.965 1.459 1.582-.002.096-.008.19-.022.286l-2.48-.003v-.001zm1.881-.437c0-.39-.168-.993-.898-.993-.648 0-.932.57-.984.994h1.882v-.001zm3.934 1.88a2.46 2.46 0 01-1.015.194c-1.065 0-1.758-.682-1.758-1.708 0-1.026.743-1.785 1.896-1.785.31-.004.615.054.898.172l-.148.471a1.54 1.54 0 00-.743-.16c-.81 0-1.247.569-1.247 1.27 0 .778.525 1.257 1.226 1.257.272 0 .542-.059.788-.17l.103.46zm3.704-.79c0 .342 0 .651.031.916h-.569l-.038-.549h-.014a1.298 1.298 0 01-.495.464c-.207.11-.439.165-.673.16-.555 0-1.22-.29-1.22-1.47v-1.965h.644v1.86c0 .639.202 1.07.786 1.07a.952.952 0 00.511-.157.891.891 0 00.336-.399c.04-.1.06-.206.058-.313v-2.06h.641l.002 2.443zm1.067-1.396c0-.395 0-.735-.029-1.047h.561l.023.659h.033c.061-.208.188-.39.362-.519.178-.134.392-.21.615-.217.06 0 .12.006.179.02v.576a1.03 1.03 0 00-.219-.02c-.452 0-.775.326-.86.784-.02.094-.03.19-.03.285v1.791h-.635v-2.312zm3.102-1.992a.37.37 0 01-.117.267.407.407 0 01-.28.11.407.407 0 01-.28-.11.369.369 0 01-.117-.267.356.356 0 01.115-.272.392.392 0 01.286-.11.398.398 0 01.284.109.36.36 0 01.11.273h-.001zm-.719 4.304v-3.36h.644v3.36h-.644zm2.484-4.325v.966h.918v.464h-.918v1.812c0 .416.124.652.482.652.125.003.25-.011.37-.042l.03.458c-.183.062-.376.09-.57.084a.937.937 0 01-.375-.057.901.901 0 01-.317-.2c-.18-.181-.248-.479-.248-.874v-1.833h-.539v-.465h.54V11.3l.627-.16zm2.006.966l.775 1.983c.078.223.167.487.224.684h.017c.064-.2.137-.458.224-.7l.7-1.97h.68l-.963 2.391c-.46 1.152-.775 1.742-1.211 2.104a1.77 1.77 0 01-.788.395l-.16-.513c.205-.066.395-.166.562-.299.232-.185.418-.418.539-.684a.437.437 0 00.05-.144.52.52 0 00-.043-.161l-1.299-3.087h.693zm-21.48 9.997c.348.196.739.301 1.138.304.65 0 1.029-.326 1.029-.798 0-.438-.262-.683-.927-.93-.803-.27-1.298-.666-1.298-1.326 0-.728.636-1.27 1.591-1.27.377-.011.75.068 1.087.23l-.18.493a2.03 2.03 0 00-.934-.222c-.67 0-.925.381-.925.7 0 .438.298.652.977.903.832.304 1.257.684 1.257 1.367 0 .722-.56 1.347-1.72 1.347a2.663 2.663 0 01-1.258-.299l.164-.5zm4.436-3.59v.967h.918v.463h-.918v1.81c0 .418.125.654.482.654a1.5 1.5 0 00.372-.041l.029.458c-.184.06-.377.09-.57.084a.94.94 0 01-.69-.259c-.179-.179-.247-.478-.247-.873v-1.833h-.539v-.463h.54v-.807l.624-.16zm3.596 4.325l-.05-.423h-.022a1.302 1.302 0 01-.476.373c-.188.088-.394.13-.602.127a1.052 1.052 0 01-.76-.258.92.92 0 01-.316-.708c0-.812.759-1.256 2.121-1.249v-.068c0-.279-.078-.778-.802-.778a1.83 1.83 0 00-.918.25l-.145-.404c.353-.2.753-.303 1.159-.297 1.078 0 1.343.7 1.343 1.367v1.256c-.005.269.014.538.057.805l-.59.007zm-.093-1.71c-.7-.013-1.496.105-1.496.759a.517.517 0 00.162.422.593.593 0 00.442.16.908.908 0 00.524-.149.842.842 0 00.33-.414.626.626 0 00.038-.194v-.583zm1.656-.741c0-.341 0-.63-.029-.907h.57l.036.553h.013c.116-.196.286-.359.492-.47.205-.111.44-.167.676-.16.489 0 1.246.276 1.246 1.428v2.007h-.637V20.9c0-.541-.212-.993-.817-.993a.943.943 0 00-.539.179.869.869 0 00-.322.446.837.837 0 00-.044.285v2.02h-.642l-.003-2.45v-.001zm7.097-2.476v4.06c0 .298 0 .638.031.867h-.577l-.028-.583h-.017c-.117.209-.291.38-.501.495a1.358 1.358 0 01-.702.165c-.853 0-1.509-.684-1.509-1.71-.008-1.117.719-1.804 1.584-1.804.208-.012.417.03.604.12s.345.225.46.393h.014V17.91h.641zm-.64 2.936a1.05 1.05 0 00-.03-.258.893.893 0 00-.331-.51.975.975 0 00-.596-.197c-.664 0-1.057.555-1.057 1.296 0 .684.35 1.242 1.044 1.242.22 0 .434-.073.605-.205a.915.915 0 00.336-.522c.02-.086.03-.175.028-.264v-.582zm3.661 1.991l-.05-.423h-.022a1.302 1.302 0 01-.476.373c-.188.087-.394.13-.6.127a1.053 1.053 0 01-.762-.258c-.1-.09-.181-.2-.236-.322a.919.919 0 01-.08-.386c0-.812.757-1.256 2.121-1.249v-.068c0-.279-.08-.778-.802-.778-.323 0-.64.087-.918.25l-.145-.404c.353-.2.753-.303 1.159-.297 1.078 0 1.343.7 1.343 1.367v1.256c-.005.269.014.538.057.805l-.59.007h.001zm-.093-1.71c-.7-.013-1.496.105-1.496.759a.517.517 0 00.161.422.593.593 0 00.443.16.909.909 0 00.524-.149.842.842 0 00.33-.414.581.581 0 00.038-.194v-.583zm1.656-.6c0-.397 0-.738-.029-1.048h.562l.022.658h.028c.06-.205.187-.388.363-.52a1.09 1.09 0 01.615-.216c.06 0 .12.007.18.021v.576a1.038 1.038 0 00-.22-.02c-.453 0-.774.326-.86.784a1.65 1.65 0 00-.03.284v1.791h-.635l.004-2.31zm5.434-2.617v4.06c0 .298 0 .638.03.867h-.576l-.03-.583h-.015c-.117.209-.291.38-.501.495a1.358 1.358 0 01-.702.165c-.853 0-1.51-.684-1.51-1.71 0-1.117.718-1.804 1.583-1.804.21-.012.419.03.607.12.187.09.345.225.459.393h.014V17.91h.642-.001zm-.64 2.936c0-.087-.01-.174-.03-.258a.895.895 0 00-.332-.51.974.974 0 00-.594-.197c-.665 0-1.059.555-1.059 1.296 0 .684.36 1.242 1.045 1.242.22 0 .433-.073.605-.205a.918.918 0 00.335-.522c.021-.087.03-.175.029-.264v-.582zm1.62 1.367c.253.152.546.235.845.243.467 0 .686-.223.686-.501s-.18-.452-.657-.617c-.634-.215-.932-.549-.932-.951 0-.541.46-.986 1.218-.986a1.83 1.83 0 01.867.21l-.16.444a1.418 1.418 0 00-.718-.196c-.38 0-.592.21-.592.458 0 .278.213.405.67.57.615.222.927.513.927 1.013 0 .59-.48 1.007-1.32 1.007a2.1 2.1 0 01-.992-.23l.157-.464zm8.85.472a3.31 3.31 0 01-1.299.222c-1.386 0-2.43-.834-2.43-2.367 0-1.465 1.044-2.457 2.568-2.457.401-.017.8.054 1.167.208l-.154.492c-.313-.134-.65-.2-.99-.194-1.154 0-1.92.701-1.92 1.93 0 1.146.694 1.88 1.89 1.88.356.006.71-.06 1.036-.194l.132.48zm3.888-1.556c0 1.24-.898 1.783-1.759 1.783-.955 0-1.691-.667-1.691-1.73 0-1.122.772-1.782 1.751-1.782 1.012.001 1.699.703 1.699 1.728zm-2.802.033c0 .736.445 1.292 1.078 1.292.631 0 1.077-.55 1.077-1.305 0-.57-.298-1.291-1.056-1.291s-1.099.668-1.099 1.305zm6.566.758c0 .343 0 .653.031.916h-.57l-.037-.547h-.014c-.121.195-.292.355-.494.463-.205.11-.437.165-.672.162-.555 0-1.22-.293-1.22-1.471v-1.965h.643v1.86c0 .637.203 1.067.787 1.067a.953.953 0 00.512-.156.894.894 0 00.336-.399.862.862 0 00.057-.311v-2.061h.641v2.442zm1.067-1.534c0-.341 0-.63-.029-.907h.568l.038.553h.014c.115-.196.285-.359.491-.47.206-.111.439-.167.676-.16.489 0 1.246.276 1.246 1.428v2.007h-.64V20.9c0-.541-.213-.993-.818-.993a.942.942 0 00-.538.179.87.87 0 00-.322.446.81.81 0 00-.045.285v2.02h-.641v-2.451zm6.573 2.326a2.472 2.472 0 01-1.014.195c-1.066 0-1.759-.684-1.759-1.71 0-1.024.745-1.783 1.897-1.783.309-.004.614.054.897.17l-.145.474a1.553 1.553 0 00-.745-.16c-.808 0-1.246.569-1.246 1.27 0 .777.524 1.255 1.224 1.255.273 0 .543-.058.789-.171l.102.46zm1.46-4.178a.37.37 0 01-.125.25.411.411 0 01-.545 0 .37.37 0 01-.125-.25.366.366 0 01.246-.355.402.402 0 01.155-.026.38.38 0 01.37.233.341.341 0 01.024.148zm-.718 4.303v-3.36h.641v3.36h-.641zm1.71-4.927h.643v4.926h-.643V17.91zm-1.667-7.075h-.672v-.231h1.633v.23h-.668v1.868h-.288l-.005-1.867zm3.064.946c-.016-.292-.036-.644-.032-.905h-.011c-.076.246-.167.513-.276.796l-.39 1.025h-.216l-.36-.998c-.096-.268-.181-.54-.255-.815 0 .261-.021.614-.041.927l-.059.9h-.271l.152-2.099h.36l.377 1.016c.091.258.167.488.223.707.055-.212.134-.443.233-.707l.391-1.016h.36l.138 2.099h-.278l-.045-.93z"
        fill="#2C6F76" />
</svg>
