<svg width="36" height="40" viewBox="0 0 36 40" fill="none" xmlns="http://www.w3.org/2000/svg"><path d="M18 0c7.59 0 13.765 6.861 13.765 15.294v14.118c0 1.946-1.425 3.53-3.177 3.53s-3.177-1.584-3.177-3.53V17.647c0-1.946 1.425-3.53 3.177-3.53.357 0 .694.081 1.014.202C29.151 7.639 24.125 2.353 18 2.353c-6.122 0-11.146 5.28-11.602 11.956a2.839 2.839 0 011.014-.191c1.751 0 3.176 1.583 3.176 3.53v11.764c0 1.946-1.425 3.53-3.176 3.53-.373 0-.726-.086-1.06-.217v1.393c0 .649.476 1.176 1.06 1.176h7.606c.44-1.366 1.603-2.353 2.982-2.353 1.751 0 3.176 1.584 3.176 3.53C21.176 38.417 19.751 40 18 40c-1.379 0-2.543-.987-2.982-2.353H7.412c-1.752 0-3.177-1.583-3.177-3.53V15.295C4.235 6.861 10.41 0 18 0zM2.118 16.687v13.684C.888 29.884 0 28.591 0 27.06V20c0-1.53.888-2.824 2.118-3.312zM36 20v7.059c0 1.532-.888 2.825-2.118 3.312V16.687C35.112 17.175 36 18.468 36 20z" fill="#49525C"/></svg>