<svg width="72" height="40" viewBox="0 0 72 40" fill="none" xmlns="http://www.w3.org/2000/svg"><path d="M13.496 24.752a3.207 3.207 0 002.759-2.755 3.202 3.202 0 00-3.585-3.593 3.2 3.2 0 00.826 6.348zm41.96.029a3.208 3.208 0 002.759-2.756 3.202 3.202 0 00-3.585-3.592 3.201 3.201 0 00.826 6.348z" fill="#97BD00"/><path d="M1.851 38.103l64.845.044.022-33.065-64.844-.044-.023 33.065zm1.382-26.079a5.844 5.844 0 005.845-5.842l50.433.034a5.845 5.845 0 005.837 5.85l-.014 19.093a5.845 5.845 0 00-5.846 5.842l-50.433-.034a5.845 5.845 0 00-5.837-5.85l.015-19.093z" fill="#97BD00"/><path d="M68.57 3.232L.024 3.185 0 39.952 68.544 40l.025-36.768zm-1.874 34.915L1.85 38.103l.023-33.066 64.844.045-.022 33.065z" fill="#690"/><path d="M9.057 36.967l50.433.034a5.844 5.844 0 015.846-5.842l.014-19.093a5.844 5.844 0 01-5.838-5.85L9.08 6.182a5.844 5.844 0 01-5.844 5.842L3.22 31.116a5.845 5.845 0 015.836 5.851zm42.815-15.779a3.204 3.204 0 012.758-2.755 3.202 3.202 0 01.826 6.348 3.2 3.2 0 01-3.584-3.593zm-26.854-3.267a9.322 9.322 0 015.61-5.606c8.265-2.973 15.903 4.683 12.922 12.95a9.321 9.321 0 01-5.61 5.604c-8.265 2.974-15.903-4.68-12.922-12.948zM9.912 21.16a3.204 3.204 0 012.758-2.756 3.202 3.202 0 01.826 6.348 3.201 3.201 0 01-3.584-3.592z" fill="#690"/><path d="M3.324 0v1.851l66.825.044-.023 32.44h1.85L72 .046 3.324 0z" fill="#690"/><path d="M34.783 18.068v7.044h1.988v-7.628c0-1.989-.419-3.22-2.502-3.22h-4.912v14.78h2.227v-12.38h1.967c.999 0 1.232.128 1.232 1.405z" fill="#690"/><path d="M37.365 14.26v12.38h-1.967c-.999 0-1.232-.13-1.232-1.405v-7.044H32.2v7.63c0 1.987.419 3.22 2.502 3.22h4.868V14.26h-2.205z" fill="#690"/></svg>