<svg width="13" height="17" viewBox="0 0 13 17" fill="none" xmlns="http://www.w3.org/2000/svg"><path d="M10.747 5.443V4.317C10.747 1.937 8.962 0 6.767 0h-.702C3.871 0 2.087 1.937 2.087 4.317v1.126A2.067 2.067 0 00.323 7.481v6.49c0 1.132.927 2.06 2.06 2.06h8.068c1.133 0 2.06-.928 2.06-2.06V7.48c0-1.032-.77-1.893-1.764-2.038zm-3.1 7.657c.077.47-.158.9-.53.9h-1.4c-.372 0-.608-.43-.531-.9l.487-2.977a1.44 1.44 0 111.488 0l.486 2.977zm1.18-7.678H4.005V4.317c0-1.232.924-2.235 2.06-2.235h.702c1.135 0 2.06 1.003 2.06 2.235v1.105z" fill="#49525C"/></svg>