<svg width="52" height="40" viewBox="0 0 52 40" fill="none" xmlns="http://www.w3.org/2000/svg"><path d="M9.463 39.911v-2.654c0-1.018-.625-1.682-1.696-1.682-.536 0-1.116.177-1.518.752-.313-.486-.759-.752-1.428-.752-.447 0-.893.133-1.25.62v-.531h-.938v4.247h.938v-2.345c0-.752.402-1.106 1.026-1.106.625 0 .938.398.938 1.106v2.345h.937v-2.345c0-.752.446-1.106 1.027-1.106.625 0 .937.398.937 1.106v2.345h1.027zm13.881-4.247h-1.517V34.38h-.938v1.284h-.848v.84h.848v1.947c0 .974.402 1.549 1.473 1.549.402 0 .848-.133 1.16-.31l-.267-.796c-.268.177-.58.221-.803.221-.447 0-.625-.265-.625-.708v-1.903h1.517v-.84zm7.945-.089a1.26 1.26 0 00-1.116.62v-.531h-.937v4.247h.937v-2.389c0-.708.313-1.106.893-1.106.179 0 .402.044.58.088l.268-.884c-.178-.045-.446-.045-.625-.045zm-12.007.443c-.446-.31-1.07-.443-1.74-.443-1.072 0-1.786.531-1.786 1.372 0 .708.536 1.106 1.473 1.239l.447.044c.49.089.758.221.758.443 0 .31-.357.53-.982.53a2.479 2.479 0 01-1.428-.442l-.446.708c.49.354 1.16.531 1.83.531 1.25 0 1.964-.575 1.964-1.372 0-.752-.58-1.15-1.473-1.283l-.447-.044c-.401-.044-.714-.133-.714-.398 0-.31.313-.487.804-.487.535 0 1.07.221 1.339.354l.401-.752zm24.907-.443a1.26 1.26 0 00-1.116.62v-.531h-.937v4.247h.937v-2.389c0-.708.312-1.106.893-1.106.178 0 .401.044.58.088l.268-.884c-.179-.045-.447-.045-.625-.045zm-11.962 2.213c0 1.283.892 2.212 2.276 2.212.625 0 1.071-.133 1.518-.487l-.447-.752c-.357.265-.714.398-1.116.398-.758 0-1.294-.53-1.294-1.371 0-.797.536-1.328 1.294-1.372.402 0 .76.133 1.116.398l.447-.752c-.447-.354-.893-.487-1.518-.487-1.384 0-2.276.93-2.276 2.213zm8.659 0v-2.124h-.938v.53c-.312-.398-.758-.619-1.339-.619-1.205 0-2.142.93-2.142 2.213S37.404 40 38.609 40c.625 0 1.072-.221 1.34-.62v.531h.937v-2.123zm-3.437 0c0-.753.49-1.372 1.294-1.372.76 0 1.295.575 1.295 1.372 0 .752-.536 1.371-1.295 1.371-.803-.044-1.294-.62-1.294-1.371zm-11.203-2.213c-1.25 0-2.143.885-2.143 2.213 0 1.327.893 2.212 2.187 2.212.625 0 1.25-.177 1.74-.575l-.445-.664c-.358.265-.804.442-1.25.442-.58 0-1.16-.265-1.295-1.017h3.17v-.354c.044-1.372-.76-2.257-1.965-2.257zm0 .797c.58 0 .982.354 1.07 1.017h-2.231c.09-.575.491-1.017 1.16-1.017zM49.5 37.788v-3.806h-.937v2.213c-.312-.398-.759-.62-1.339-.62-1.205 0-2.142.93-2.142 2.213S46.019 40 47.224 40c.625 0 1.071-.221 1.34-.62v.531h.936v-2.123zm-3.437 0c0-.753.491-1.372 1.295-1.372.759 0 1.294.575 1.294 1.372 0 .752-.535 1.371-1.294 1.371-.803-.044-1.294-.62-1.294-1.371zm-31.333 0v-2.124h-.938v.53c-.312-.398-.758-.619-1.339-.619-1.205 0-2.142.93-2.142 2.213S11.248 40 12.453 40c.625 0 1.072-.221 1.34-.62v.531h.937v-2.123zm-3.482 0c0-.753.491-1.372 1.295-1.372.758 0 1.294.575 1.294 1.372 0 .752-.536 1.371-1.294 1.371-.804-.044-1.295-.62-1.295-1.371z" fill="#000"/><path d="M33.03 3.407H18.97v25.044h14.06V3.407z" fill="#FF5F00"/><path d="M19.863 15.93c0-5.09 2.41-9.603 6.115-12.523A16.059 16.059 0 0016.068 0C7.187 0 0 7.124 0 15.93c0 8.805 7.186 15.928 16.069 15.928a16.06 16.06 0 009.909-3.407 15.856 15.856 0 01-6.115-12.522z" fill="#EB001B"/><path d="M52 15.93c0 8.805-7.186 15.928-16.069 15.928a16.06 16.06 0 01-9.909-3.407 15.789 15.789 0 006.115-12.522c0-5.088-2.41-9.602-6.115-12.522A16.059 16.059 0 0135.932 0C44.813 0 52 7.168 52 15.93z" fill="#F79E1B"/></svg>