<svg width="150" height="40" viewBox="0 0 150 40" fill="none" xmlns="http://www.w3.org/2000/svg"><path d="M55.9 8.18h-8.273a1.148 1.148 0 00-1.136.973L43.145 30.41a.694.694 0 00.394.734.69.69 0 00.289.063h3.95a1.148 1.148 0 001.135-.973l.903-5.733a1.153 1.153 0 011.134-.974h2.62c5.449 0 8.594-2.642 9.416-7.879.37-2.29.015-4.09-1.055-5.351-1.176-1.384-3.262-2.116-6.03-2.116zm.955 7.764c-.453 2.975-2.72 2.975-4.914 2.975h-1.248l.876-5.555a.691.691 0 01.68-.583h.573c1.494 0 2.903 0 3.631.853.434.509.567 1.265.402 2.31zm23.775-.096h-3.962a.689.689 0 00-.68.583l-.176 1.11-.277-.402c-.858-1.247-2.77-1.664-4.68-1.664-4.377 0-8.116 3.323-8.845 7.983-.378 2.325.16 4.548 1.476 6.098 1.208 1.426 2.935 2.02 4.99 2.02 3.528 0 5.484-2.273 5.484-2.273l-.177 1.103a.693.693 0 00.68.8h3.568a1.148 1.148 0 001.136-.973l2.141-13.587a.69.69 0 00-.678-.798zm-5.522 7.726c-.383 2.268-2.179 3.79-4.47 3.79-1.15 0-2.07-.369-2.66-1.07-.586-.695-.808-1.686-.622-2.788.357-2.249 2.184-3.821 4.44-3.821 1.124 0 2.04.374 2.641 1.081.604.714.844 1.71.67 2.809zm26.621-7.726h-3.981a1.152 1.152 0 00-.952.506l-5.49 8.104-2.328-7.788a1.155 1.155 0 00-1.103-.822h-3.912a.689.689 0 00-.655.914l4.385 12.895-4.123 5.832a.693.693 0 00.563 1.09h3.976a1.147 1.147 0 00.945-.494l13.241-19.152a.691.691 0 00-.566-1.085z" fill="#253B80"/><path d="M114.91 8.18h-8.274a1.149 1.149 0 00-1.135.973l-3.346 21.257a.684.684 0 00.392.734.68.68 0 00.288.063h4.246a.805.805 0 00.793-.68l.95-6.026a1.15 1.15 0 011.135-.974h2.617c5.451 0 8.595-2.642 9.418-7.879.371-2.29.014-4.09-1.056-5.351-1.175-1.384-3.259-2.116-6.028-2.116zm.954 7.764c-.451 2.975-2.719 2.975-4.914 2.975h-1.247l.877-5.555a.688.688 0 01.68-.583h.572c1.493 0 2.904 0 3.632.853.434.509.566 1.265.4 2.31zm23.774-.096h-3.959a.684.684 0 00-.68.583l-.176 1.11-.278-.402c-.857-1.247-2.769-1.664-4.678-1.664-4.377 0-8.115 3.323-8.844 7.983-.377 2.325.159 4.548 1.475 6.098 1.21 1.426 2.935 2.02 4.99 2.02 3.527 0 5.483-2.273 5.483-2.273l-.176 1.103a.69.69 0 00.682.8h3.567a1.149 1.149 0 001.135-.973l2.142-13.587a.686.686 0 00-.158-.556.696.696 0 00-.525-.242zm-5.522 7.726c-.38 2.268-2.179 3.79-4.47 3.79-1.148 0-2.07-.369-2.66-1.07-.586-.695-.806-1.686-.622-2.789.359-2.248 2.184-3.82 4.44-3.82 1.125 0 2.039.374 2.642 1.081.606.714.845 1.71.67 2.809zm10.193-14.81l-3.396 21.646a.684.684 0 00.392.734.68.68 0 00.288.063h3.414c.567 0 1.048-.412 1.135-.973l3.349-21.256a.701.701 0 00-.157-.556.677.677 0 00-.523-.243h-3.823a.69.69 0 00-.679.585z" fill="#179BD7"/><path d="M8.79 35.338l.632-4.027-1.41-.032H1.285L5.96 1.566a.383.383 0 01.38-.325h11.347c3.767 0 6.366.786 7.723 2.336.637.727 1.042 1.487 1.238 2.324.206.877.21 1.926.009 3.204l-.015.094v.82l.636.36c.486.247.923.58 1.289.985.544.621.896 1.412 1.045 2.349.153.963.103 2.11-.15 3.408-.29 1.494-.759 2.794-1.393 3.858a7.929 7.929 0 01-2.207 2.425c-.842.598-1.843 1.053-2.974 1.344-1.096.286-2.345.43-3.716.43h-.883c-.631 0-1.245.228-1.726.637-.48.412-.8.983-.9 1.61l-.067.362-1.117 7.097-.051.26c-.013.083-.036.124-.07.152a.188.188 0 01-.116.042H8.79z" fill="#253B80"/><path d="M27.88 9.293a19.61 19.61 0 01-.115.667c-1.497 7.698-6.616 10.358-13.155 10.358h-3.329c-.8 0-1.473.581-1.598 1.372L7.98 32.52l-.483 3.07a.855.855 0 00.841.987h5.905c.699 0 1.293-.509 1.403-1.2l.058-.3 1.111-7.07.072-.387a1.42 1.42 0 011.403-1.203h.883c5.72 0 10.199-2.327 11.508-9.062.547-2.813.264-5.162-1.183-6.814a5.646 5.646 0 00-1.616-1.249z" fill="#179BD7"/><path d="M26.315 8.668a11.782 11.782 0 00-1.455-.324 18.452 18.452 0 00-2.935-.214h-8.893a1.416 1.416 0 00-1.402 1.202L9.738 21.34l-.055.35a1.62 1.62 0 011.598-1.371h3.33c6.538 0 11.657-2.661 13.154-10.358.044-.228.082-.45.116-.667a7.97 7.97 0 00-1.23-.52 10.87 10.87 0 00-.336-.105z" fill="#222D65"/><path d="M11.63 9.332a1.418 1.418 0 011.402-1.201h8.893c1.054 0 2.037.069 2.935.214.607.096 1.206.24 1.792.428.441.147.851.32 1.23.52.445-2.845-.004-4.781-1.539-6.535C24.651.827 21.596 0 17.688 0H6.34c-.798 0-1.48.582-1.603 1.373L.012 31.392a.979.979 0 00.962 1.13h7.005l1.759-11.183L11.63 9.332z" fill="#253B80"/></svg>