<svg width="66" height="40" viewBox="0 0 66 40" fill="none" xmlns="http://www.w3.org/2000/svg">
  <path d="M0 0h66v21.628l-3.267 5.055 3.267 4.5V40H0V18.443l2.042-2.325L0 13.893V0z" fill="#016FD0" />
  <path d="M12.595 31.83V21.5h11.016l1.182 1.53 1.221-1.53H66v9.617s-1.046.703-2.255.713H41.604l-1.332-1.628v1.628h-4.367v-2.78s-.597.388-1.886.388h-1.487v2.392h-6.611l-1.18-1.563-1.199 1.563H12.595zM0 13.893l2.468-5.712h4.268l1.4 3.2v-3.2h5.306l.834 2.313.808-2.313h23.817v1.162s1.252-1.162 3.31-1.162l7.727.026 1.377 3.159V8.18h4.44l1.221 1.814V8.18h4.481v10.262h-4.48l-1.172-1.82v1.82h-6.523l-.656-1.618h-1.754l-.645 1.618h-4.424c-1.77 0-2.902-1.139-2.902-1.139v1.139h-6.67l-1.324-1.618v1.618H6.104l-.656-1.618H3.7l-.65 1.618H0v-4.55z"
        fill="#fff" />
  <path d="M3.341 9.446L.013 17.13H2.18l.614-1.539h3.57l.612 1.539H9.19L5.865 9.446H3.341zm1.232 1.788l1.088 2.689h-2.18l1.092-2.689zM9.42 17.129V9.444l3.08.012 1.79 4.954 1.749-4.966h3.055v7.685h-1.935v-5.662l-2.05 5.662H13.41l-2.056-5.662v5.662H9.42zM20.418 17.129V9.444h6.314v1.72h-4.359v1.314h4.257v1.617h-4.257v1.365h4.359v1.669h-6.314zM27.852 9.446v7.684h1.935V14.4h.814l2.32 2.73h2.365l-2.546-2.831a2.347 2.347 0 002.123-2.36c0-1.617-1.279-2.493-2.705-2.493h-4.306zm1.935 1.719h2.212c.53 0 .916.412.916.809 0 .51-.5.808-.888.808h-2.24v-1.617zM37.628 17.129h-1.976V9.444h1.976v7.685zM42.312 17.129h-.426c-2.063 0-3.316-1.614-3.316-3.81 0-2.252 1.239-3.875 3.844-3.875h2.139v1.82h-2.217c-1.058 0-1.806.82-1.806 2.073 0 1.488.856 2.113 2.088 2.113h.509l-.815 1.679zM46.523 9.446l-3.33 7.684h2.168l.614-1.539h3.57l.612 1.539h2.215l-3.326-7.684h-2.523zm1.231 1.788l1.088 2.689h-2.18l1.092-2.689zM52.598 17.129V9.444h2.46l3.14 4.828V9.444h1.935v7.685h-2.38l-3.22-4.955v4.955h-1.935zM14.104 30.576v-7.684h6.314v1.719h-4.359v1.314h4.257v1.618h-4.257v1.365h4.359v1.668h-6.314zM45.041 30.576v-7.684h6.314v1.719h-4.358v1.314h4.236v1.618h-4.236v1.365h4.358v1.668h-6.314zM20.663 30.576l3.074-3.795-3.147-3.89h2.437l1.875 2.405 1.88-2.404h2.343l-3.106 3.842 3.08 3.842H26.66l-1.82-2.367-1.775 2.367h-2.403zM29.328 22.893v7.684h1.986v-2.426h2.037c1.723 0 3.03-.908 3.03-2.673 0-1.463-1.025-2.585-2.779-2.585h-4.274zm1.986 1.738h2.145c.557 0 .955.339.955.884 0 .513-.396.885-.961.885h-2.139v-1.77zM37.22 22.892v7.684h1.935v-2.73h.815l2.32 2.73h2.364l-2.545-2.831a2.347 2.347 0 002.122-2.36c0-1.617-1.278-2.493-2.705-2.493h-4.305zm1.935 1.719h2.212c.53 0 .917.412.917.808 0 .51-.5.81-.888.81h-2.24V24.61zM52.251 30.576v-1.668h3.873c.573 0 .82-.308.82-.645 0-.323-.247-.65-.82-.65h-1.75c-1.521 0-2.368-.92-2.368-2.301 0-1.232.775-2.42 3.036-2.42h3.767l-.814 1.729h-3.259c-.623 0-.815.324-.815.634 0 .319.237.67.713.67h1.833c1.696 0 2.432.955 2.432 2.205 0 1.345-.82 2.446-2.524 2.446h-4.124zM59.353 30.576v-1.668h3.872c.573 0 .821-.308.821-.645 0-.323-.247-.65-.821-.65h-1.75c-1.52 0-2.368-.92-2.368-2.301 0-1.232.776-2.42 3.036-2.42h3.768l-.815 1.729h-3.259c-.622 0-.814.324-.814.634 0 .319.237.67.713.67h1.833c1.695 0 2.431.955 2.431 2.205 0 1.345-.82 2.446-2.524 2.446h-4.123z"
        fill="#016FD0" />
</svg>
