<svg width="58" height="29" viewBox="0 0 58 29" fill="none" xmlns="http://www.w3.org/2000/svg">
  <path d="M10.295 13.852v3.835H0v-3.835h10.295zm8.777 2.206v-3.979h2.564c1.531 0 2.81-.342 3.835-1.025 1.025-.684 1.538-1.702 1.538-3.056 0-1.326-.438-2.324-1.313-2.994-.861-.67-1.975-1.005-3.343-1.005-2.761 0-4.641 1.354-5.64 4.06l-4.613-.8c.52-2.132 1.715-3.875 3.588-5.229C17.575.677 19.846 0 22.498 0c2.638 0 4.887.684 6.746 2.05 1.873 1.354 2.81 3.173 2.81 5.456 0 1.695-.506 3.144-1.518 4.348-.998 1.203-2.235 1.859-3.712 1.968 1.832.274 3.302 1.033 4.41 2.277 1.12 1.244 1.681 2.74 1.681 4.49 0 2.407-.97 4.39-2.912 5.948-1.928 1.545-4.498 2.318-7.711 2.318-2.967 0-5.42-.753-7.362-2.256-1.928-1.518-3.145-3.254-3.65-5.21l4.778-1.168c.957 3.117 3.021 4.675 6.193 4.675 1.64 0 2.96-.416 3.958-1.25 1.012-.848 1.518-1.867 1.518-3.056 0-1.203-.438-2.256-1.313-3.158-.861-.916-2.167-1.374-3.917-1.374h-3.425zM39.768 10.2c-1.258 0-2.267-.483-3.027-1.45-.752-.975-1.127-2.162-1.127-3.56 0-1.373.38-2.522 1.14-3.445.76-.933 1.778-1.399 3.053-1.399 1.424 0 2.476.488 3.158 1.463C43.655 2.785 44 3.9 44 5.15c0 1.554-.41 2.785-1.232 3.691-.82.907-1.821 1.36-3 1.36zm.013-1.916c1.205 0 1.808-1.036 1.808-3.108 0-1.968-.581-2.952-1.743-2.952-1.18 0-1.769.98-1.769 2.94 0 2.08.568 3.12 1.704 3.12zM53.333.592L42.261 18.268h-2.273L51.099.592h2.234zm-.105 18.104c-1.179 0-2.157-.45-2.935-1.347-.769-.907-1.153-2.046-1.153-3.419 0-1.58.428-2.823 1.284-3.73.865-.914 1.857-1.372 2.975-1.372 1.057 0 2.005.423 2.843 1.27.839.845 1.258 2.123 1.258 3.832 0 1.433-.406 2.586-1.219 3.458-.803.872-1.82 1.308-3.053 1.308zm.105-1.878c.62 0 1.07-.294 1.35-.88.288-.596.432-1.278.432-2.046 0-1.114-.14-1.909-.42-2.383-.27-.484-.69-.726-1.257-.726-1.24 0-1.86 1.006-1.86 3.018 0 2.011.585 3.017 1.755 3.017z"
        fill="#49525C" />
</svg>
