<svg width="124" height="40" viewBox="0 0 124 40" fill="none" xmlns="http://www.w3.org/2000/svg">
  <path d="M53.733 39.423H43.688L49.971.702h10.045l-6.283 38.721zM90.147 1.649C88.165.865 85.023 0 81.137 0c-9.92 0-16.905 5.272-16.948 12.81-.082 5.562 5.002 8.65 8.804 10.505 3.886 1.895 5.207 3.132 5.207 4.82-.04 2.595-3.14 3.79-6.032 3.79-4.01 0-6.16-.616-9.425-2.06l-1.323-.618-1.405 8.692C62.37 39.01 66.71 39.96 71.218 40c10.54 0 17.401-5.19 17.483-13.224.04-4.407-2.645-7.785-8.432-10.545-3.513-1.772-5.665-2.966-5.665-4.779.041-1.648 1.82-3.336 5.786-3.336 3.265-.083 5.665.7 7.482 1.483l.909.41 1.366-8.36zM103.497 25.706c.827-2.225 4.011-10.834 4.011-10.834-.042.082.825-2.266 1.321-3.707l.702 3.336s1.902 9.269 2.315 11.205h-8.349zM115.896.701h-7.769c-2.396 0-4.217.7-5.25 3.213l-14.92 35.507h10.539l2.108-5.808h12.897c.288 1.36 1.198 5.808 1.198 5.808H124L115.896.702zM35.298.702l-9.837 26.404-1.075-5.355C22.567 15.57 16.864 8.858 10.5 5.52l9.01 33.86h10.622L45.92.702H35.298z"
        fill="#00579F" />
  <path d="M16.327.702H.165L0 1.484c12.607 3.214 20.956 10.959 24.386 20.269L20.873 3.957C20.295 1.484 18.517.783 16.327.702z"
        fill="#FAA61A" />
</svg>
