<svg width="79" height="40" viewBox="0 0 79 40" fill="none" xmlns="http://www.w3.org/2000/svg">
  <g fill-rule="evenodd" clip-rule="evenodd">
    <path d="M59.513 32.746h1.179c.108.493.268.935.336 1.468h1.978c.533 1.688 1.408 4.609-1.304 4.444-.027-.144-.027-.283-.057-.501.39-.08.589-.176.688-.463.29-.837-.15-1.933-.379-2.809h-1.936c-.154-.728-.363-1.4-.505-2.139zm-38.406 0h1.179c.108.493.268.935.336 1.468H24.6c.534 1.688 1.408 4.609-1.304 4.444-.026-.144-.026-.283-.056-.501.388-.08.588-.176.687-.463.29-.837-.15-1.933-.378-2.809h-1.936c-.154-.728-.364-1.4-.506-2.139zm-10.866 0h1.178c.109.493.269.935.337 1.468h1.978c.534 1.688 1.408 4.609-1.304 4.444-.027-.144-.027-.283-.057-.501.389-.08.589-.176.688-.463.29-.837-.15-1.933-.379-2.809h-1.936c-.153-.728-.363-1.4-.505-2.139zm35.046 5.158h1.43c-.43-1.36-.277-3.302-2.187-3.187.244 1.07.526 2.103.757 3.186zm2.778.67h-3.788c-.355-1.408-.669-2.856-1.052-4.234.921-.307 2.242-.368 2.988 0 1.38.678 1.391 2.653 1.852 4.234zm-39.605-.67h1.43c-.43-1.36-.278-3.302-2.188-3.187.245 1.07.527 2.103.758 3.186zm2.777.67H7.45c-.354-1.408-.668-2.856-1.052-4.234.922-.307 2.242-.368 2.988 0 1.38.678 1.391 2.653 1.852 4.234zm53.24-.235c0-.235.003-.429.003-.687.49.358 1.065.536 1.43.293.785-.52-.074-2.85-.8-3.144-.432-.175-1.078-.04-1.135.503-.157-.276-.316-.494-.464-.797 2.05-1.366 4.177.805 3.915 2.935-.174 1.413-1.768 1.574-2.949.897zm-47.372 0c0-.235.003-.429.003-.687.49.358 1.064.536 1.43.293.785-.52-.075-2.85-.8-3.144-.431-.175-1.078-.04-1.135.503-.156-.276-.316-.494-.464-.797 2.051-1.366 4.177.805 3.915 2.935-.174 1.413-1.769 1.574-2.949.897zm54.234-.477c.08.074.279.03.422.042v.67h-3.578c-.015-.246-.02-.407-.042-.67h1.978c-.499-.572-.2-3.462-1.994-3.114-.246.047-.416.197-.53.472a18.012 18.012 0 01-.464-.713c1.134-.851 2.712-.4 3.283.461.536.807.433 1.963.925 2.852zm-30.857 0c.08.074.278.03.42.042v.67h-3.577c-.015-.246-.02-.407-.041-.67h1.978c-.5-.572-.2-3.462-1.995-3.114-.246.047-.417.197-.53.472a18.012 18.012 0 01-.463-.713c1.133-.851 2.711-.4 3.283.461.535.807.433 1.963.925 2.852zm-9.382 0c.08.074.278.03.42.042v.67h-3.576c-.015-.246-.02-.407-.042-.67h1.978c-.5-.572-.2-3.462-1.994-3.114-.247.047-.417.197-.531.472a18.06 18.06 0 01-.464-.713c1.134-.851 2.712-.4 3.283.461.536.807.434 1.963.927 2.852zm25.299.712a17.193 17.193 0 01-.043-.587c.27.053.382.108.612.025.106-.039.189-.179.23-.318.27-.918-.49-2.74-1.22-2.725-.452.009-.56.54-.482 1.104.119.851.399 1.788.566 2.502h-1.178c-.363-1.442-.73-2.88-1.053-4.36h1.179c.052.24.13.455.168.712.11-.704.996-.956 1.726-.671 1.667.65 2.694 5.304-.505 4.319zm-31.304-4.366c.284.017.653-.012.939.005.448.025.451.239.528.444.364 1.099.674 2.352-.617 2.45-.198-.925-.524-2.6-.85-2.899zm5.672.006h1.22c.137.34.214.702.313 1.005.438 1.343.47 2.184 1.413 2.768.453.282 1.245.117 1.43-.377.195-.515-.29-2.555-.378-3.396h1.178c.04 1.343.741 2.96.085 3.898-.673.964-2.775.72-3.62-.125-.911-.911-.788-1.589-1.642-3.773z"
          fill="#504E4B" />
    <path d="M33.515 37.094c-.28-.916-.444-1.976-.728-2.88h1.136c.093.923 1.38 3.562-.189 3.18-.113-.038-.11.006-.22-.3zm14.55-1.239c-.118-.484-.227-1.236-.57-1.603.31-.009.82-.005 1.123 0 .235.003.285.141.395.55.21.916.63 2.742.904 3.772h-1.22c-.202-.908-.412-1.815-.633-2.719zm-33.19 0c-.118-.484-.227-1.236-.57-1.603.31-.009.819-.005 1.123 0 .235.003.285.141.395.55.209.916.63 2.742.904 3.772h-1.22c-.201-.908-.412-1.815-.632-2.719zm34.49-1.607c1.272-.019 2.53-.006 3.793-.034.469 1.736 1.407 4.255-1.115 4.415-.058-.21-.073-.255-.115-.442 1.38-.43.385-2.05.22-3.302H49.58a8.076 8.076 0 01-.215-.637z"
          fill="#504E4B" />
    <path d="M49.833 35.43h1.178c.358 1.53.757 3.02 1.095 4.57h-1.179c-.383-1.505-.777-3-1.094-4.57zm-6.67 2.246c.786.101.602 1.526-.01 1.838-.052-.08-.059-.083-.13-.187 0 0 .208-.316.202-.543-.253-.152-.536-.528-.416-.867.065-.184.208-.262.354-.242z"
          fill="#504E4B" />
    <path d="M37.777 0c.063.348.114.723.114.723-.193.567-.701 1.226-1.064 1.583-.726.716-1.946 1.24-2.994 1.378.814.529 2.5.621 3.537.207.001.105.006.308.006.308s-.268.255-.71.431a3.697 3.697 0 01-1.101.234c-.664.05-1.349-.128-1.944-.174-2.198-.168-3.444.91-4.528 1.88 1.446.1 3.059.783 4.283.18l-.002.336s-.403.44-1.69.497c-1.43.065-3.127-.434-3.37.81-.278 1.426 1.002 2.675 1.572 3.42-2.876.088-5.344.386-7.347 0-.848-.164-2.33-1.123-1.537-1.89.35-.34.803-.448 1.22-.615.945-.376 3.591-1.306 3.885-1.518.198-.141.307-.415.57-.72 1.283-1.49 2.791-2.646 4.72-3.59 1.196-.584 2.37-.947 3.494-1.342 1.302-.456 2.182-1.133 2.886-2.138zm.79 15.404c.607.476.68.224.74.003.069-.473.182-1.246.256-1.822h1.557c-.095.858-.238 1.595-.378 2.474-.043.266-.134.644-.096.842.058.307 1.598 1.341 1.831 1.608l-1.946-.018s-2.301-1.765-2.988-2.307c-.312-.245-.856-.731-1.053-.629-.282.09.384 1.962.632 2.936h-1.473c-.27-.977-.585-2.202-.884-3.313-.142-.528-.37-1.179.022-1.533.289-.261.904-.287 1.337-.06.933.489 1.722 1.285 2.444 1.82zm-5.021 6.206c.606.476.678.224.74.004.068-.473.18-1.246.255-1.823h1.557c-.095.86-.238 1.596-.378 2.474-.043.266-.135.645-.097.843.059.307 1.599 1.34 1.833 1.607l-1.947-.018s-2.3-1.765-2.988-2.306c-.312-.246-.856-.732-1.052-.629-.283.09.383 1.963.63 2.935h-1.472c-.27-.976-.585-2.2-.884-3.312-.142-.528-.37-1.179.022-1.534.289-.26.904-.286 1.337-.06.932.49 1.722 1.286 2.444 1.82zm-5.455-8.016c1.256.01 2.69-.007 3.873.036 1.174.042 1.597.28 1.854.848.254.563.425 1.297.61 2 .18.678.376 1.36.547 2.013h-1.473c-.228-.889-.471-1.766-.716-2.664-.27-.82-.02-.764-1.216-.776-1.006-.02-2.072.022-3.076.002-.143-.487-.26-.972-.403-1.459zm8.37 6.202c1.233.01 2.64-.008 3.8.036 1.152.042 1.568.28 1.82.848.25.563.417 1.297.599 2 .175.678.368 1.36.537 2.013h-1.446c-.224-.889-.463-1.766-.702-2.664-.267-.82-.02-.764-1.194-.776l-3.019.001c-.11-.397-.23-.866-.395-1.458zm5.333-6.211h1.473c.41 1.66.88 3.26 1.305 4.906h-1.473c-.426-1.644-.888-3.253-1.305-4.906zm2.189 0h5.428c.11.505.256 1.022.38 1.512-.42-.01-.503-.036-.356.618.213.956.521 1.82.734 2.776h-1.473c-.242-.819-.428-1.692-.67-2.512-.28-1-.045-.9-1.223-.906-.714-.008-1.36-.006-2.442-.02-.129-.487-.295-.937-.378-1.468zm-22.476 5.032h1.474c.08.24.134.466.196.704.146.607.181.455.739.476.89.034 1.905-.004 2.76.025.588.02 1.061-.016 1.489.23.253.143.463.352.605.605.174.312.334.874.482 1.398.23.815.624 1.77 0 2.348-.495.457-1.61.292-2.526.293-.097-.518-.258-.973-.378-1.468.33 0 .748.048 1.1.026.539.008.561-.059.485-.473-.053-.261-.124-.487-.188-.756-.225-.793.053-.721-1.423-.748-1.352-.015-2.75.002-4.1-.019-.232-.886-.474-1.764-.715-2.641zm21.045 1.173h1.472c.276.941.48 1.953.78 2.87.196.603.102.586.714.596.231.003.426.004.65 0 .539-.01.5-.065.354-.771-.193-.887-.515-1.81-.73-2.694h1.474c.262.946.471 1.873.75 2.767.218.644.106.69.665.686.242 0 .436-.01.7-.01.603.01.57-.043.39-.776-.183-.882-.476-1.709-.696-2.668h1.473c.338 1.337.69 2.412.926 3.522.114.531-.094.947-.38 1.192-.19.164-.597.25-1.145.248-.654-.003-3.892-.012-4.548-.026a2.527 2.527 0 01-1.08-.257c-.288-.14-.512-.332-.633-.653-.335-.886-.89-3.057-1.136-4.026zm8.67 0h1.473c.19.83.446 1.597.631 2.432h-1.473c-.186-.835-.44-1.602-.631-2.432zM27.105 13.67c.278 1.05.594 2.064.842 3.144C17.283 16.506 7.704 17.64 0 20.42c7.176-3.932 16.453-6.16 27.105-6.75zm27.525 9.518c-.301-1.111-.584-2.24-.925-3.313C63.434 22.191 72.37 26.226 79 31.572c-6.94-3.973-15.11-6.721-24.37-8.385z"
          fill="#B2101B" />
  </g>
</svg>
