<svg width="93" height="32" viewBox="0 0 93 32" fill="none" xmlns="http://www.w3.org/2000/svg">
  <path d="M52.95 10.14l-1.923-1.133-.143.222c-.438.682-1.037 1.03-1.779 1.028-1.27 0-2.228-.951-2.228-2.213 0-1.26.96-2.21 2.231-2.21.752 0 1.318.329 1.779 1.033l.144.219 1.93-1.135-.166-.24c-.923-1.325-2.129-1.97-3.686-1.97-2.945-.001-4.534 2.215-4.535 4.302-.002 2.088 1.586 4.306 4.53 4.308 1.5 0 2.916-.756 3.694-1.975l.15-.236h.002zm5.362-4.694l1.075 2.677h-2.166l1.09-2.677h.001zm-5.46 6.908h2.659l.789-1.947 3.989.002.787 1.948 2.668.002L58.984.944l-2.37-.002.63 1.512-4.391 9.899-.001.001zm11.993.006h2.332l.003-5.122h1.52v-2.15h-1.52V4.072c0-.435.295-.899.84-.899.3 0 .481.052.661.129l.26.11.969-2.098-.28-.113c-.433-.177-1.036-.239-1.457-.24-1.058 0-1.93.343-2.52.991-.52.566-.804 1.355-.805 2.218v.916h-1.03l-.001 2.149h1.03l-.003 5.124.001.001zM33.58.876v11.466l2.534.002.004-6.556 2.455 1.815 2.458-1.815v6.558l2.53.001.007-11.471-4.993 3.741L33.58.876zM71.918 7.01c.304-.782.961-1.238 1.81-1.238.858 0 1.528.448 1.883 1.24l-3.693-.002zm2.034-3.23c-2.936-.003-4.52 2.209-4.522 4.289 0 2.081 1.582 4.293 4.517 4.295h.003c1.346-.015 2.609-.623 3.586-1.72l-1.902-1.028c-.488.495-1.08.755-1.733.755-.958 0-1.808-.634-2.03-1.46l6.343.002v-.57c.001-3.147-2.491-4.563-4.262-4.565v.002zm7.499 3.236c.304-.782.96-1.239 1.81-1.238.858 0 1.528.448 1.882 1.24l-3.692-.002zm2.034-3.231c-2.936-.002-4.52 2.208-4.522 4.29-.001 2.08 1.581 4.292 4.517 4.294h.003c1.346-.015 2.609-.623 3.585-1.72l-1.902-1.028c-.488.495-1.08.756-1.733.756-.958-.001-1.807-.634-2.03-1.462l6.343.003v-.57c.002-3.147-2.49-4.563-4.262-4.564h.001v.001z"
        fill="#AD262A" />
  <path d="M89.07 15.808h1.541v.286h-.606v1.602h-.332v-1.602h-.603v-.286zm1.757 0h.47l.525 1.478h.005l.513-1.478h.463v1.888h-.317v-1.457h-.006l-.527 1.457h-.275l-.529-1.457h-.004v1.457h-.318v-1.888zm-50.046 7.856c0 .982-.357 1.756-1.069 2.321-.713.566-1.704.848-2.974.848-1.171 0-2.206-.218-3.107-.654v-2.143c.74.327 1.367.558 1.88.692.513.133.982.201 1.406.201.51 0 .902-.097 1.175-.29.272-.194.409-.481.409-.863a.949.949 0 00-.181-.57 2.013 2.013 0 00-.529-.48c-.232-.153-.707-.398-1.421-.736-.67-.312-1.173-.612-1.508-.9-.33-.28-.602-.62-.803-1.004-.2-.383-.301-.828-.301-1.34 0-.962.33-1.718.987-2.27.658-.55 1.567-.824 2.728-.824.57 0 1.114.067 1.632.2.517.134 1.058.322 1.623.567l-.75 1.791c-.472-.2-.957-.366-1.452-.498a4.708 4.708 0 00-1.129-.141c-.44 0-.778.102-1.012.305a1 1 0 00-.353.796c0 .204.048.38.142.532.096.151.247.298.455.438.207.142.699.397 1.473.764 1.026.486 1.729.973 2.109 1.46.38.49.57 1.089.57 1.798zm8.098 3.02h-6.317V15.809h6.317v1.89h-3.992v2.388h3.714v1.889h-3.714v2.804h3.992v1.906-.002zm6.532-9.113c-.876 0-1.553.326-2.033.978-.48.652-.72 1.561-.72 2.727 0 2.425.917 3.638 2.753 3.638.77 0 1.703-.191 2.798-.573v1.934c-.9.372-1.905.557-3.016.557-1.595 0-2.815-.479-3.66-1.439-.846-.96-1.268-2.336-1.268-4.132 0-1.13.207-2.12.623-2.972.414-.85 1.01-1.503 1.789-1.957.777-.454 1.69-.681 2.734-.681 1.066 0 2.136.256 3.21.767l-.749 1.875c-.403-.19-.816-.36-1.238-.506a3.727 3.727 0 00-1.223-.216zm13.714-1.763v7.038c0 .803-.182 1.507-.544 2.112-.363.605-.887 1.07-1.572 1.392-.686.322-1.495.483-2.43.483-1.41 0-2.506-.358-3.286-1.075-.78-.717-1.17-1.698-1.17-2.942v-7.008h2.317v6.659c0 .837.17 1.453.51 1.844.34.392.903.588 1.689.588.76 0 1.311-.197 1.654-.592.342-.393.513-1.012.513-1.855v-6.644h2.319zm4.545 4.828h.75c.735 0 1.278-.121 1.627-.365.35-.242.526-.624.526-1.145 0-.516-.179-.883-.536-1.101-.358-.219-.911-.327-1.662-.327h-.705v2.938zm0 1.875v4.174h-2.326V15.808h3.196c1.49 0 2.594.27 3.308.807.716.539 1.073 1.355 1.073 2.45 0 .641-.177 1.21-.532 1.708-.355.5-.858.89-1.508 1.173a431.196 431.196 0 003.226 4.739h-2.58l-2.619-4.174H73.67zM87.622 26.685h-6.317V15.808h6.317v1.89H83.63v2.388h3.713v1.889H83.63v2.804h3.99v1.906"
        fill="#4C4F4F" />
  <path d="M5.72 21.796V8.821l8.254 3.785v-6.26L-.013-.067v25.491l13.987 6.419v-6.26L5.72 21.796z" fill="#AD262A" />
  <path d="M22.222 21.795V8.82l-8.254 3.785v-6.26L27.955-.068v25.491l-13.987 6.419v-6.26l8.254-3.787" fill="#5E1D1B" />
  <mask id="a" maskUnits="userSpaceOnUse" x="0" y="0" width="88" height="32">
    <path d="M0 0h87.622v31.897H0V0z" fill="#fff" />
  </mask>
</svg>
