<svg width="23" height="19" viewBox="0 0 23 19" fill="none" xmlns="http://www.w3.org/2000/svg">
  <path d="M4.768 10.2c-1.258 0-2.267-.483-3.027-1.45C.989 7.775.614 6.588.614 5.19c0-1.373.38-2.522 1.14-3.445C2.514.812 3.532.346 4.807.346c1.424 0 2.476.488 3.158 1.463C8.655 2.785 9 3.9 9 5.15c0 1.554-.41 2.785-1.232 3.691-.82.907-1.821 1.36-3 1.36V10.2zm.013-1.916c1.205 0 1.808-1.036 1.808-3.108 0-1.968-.581-2.952-1.743-2.952-1.18 0-1.769.98-1.769 2.94 0 2.08.568 3.12 1.704 3.12zM18.333.592L7.261 18.268H4.988L16.099.592h2.234zm-.105 18.104c-1.179 0-2.157-.45-2.935-1.347-.769-.907-1.153-2.046-1.153-3.419 0-1.58.428-2.823 1.284-3.73.865-.914 1.857-1.372 2.975-1.372 1.057 0 2.005.423 2.843 1.27.839.845 1.258 2.123 1.258 3.832 0 1.433-.406 2.586-1.219 3.458-.803.872-1.82 1.308-3.053 1.308zm.105-1.878c.62 0 1.07-.294 1.35-.88.288-.596.432-1.278.432-2.046 0-1.114-.14-1.909-.42-2.383-.27-.484-.69-.726-1.257-.726-1.24 0-1.86 1.006-1.86 3.018 0 2.011.585 3.017 1.755 3.017z"
        fill="#49525C" />
</svg>
