<svg width="110" height="39" viewBox="0 0 110 39" fill="none" xmlns="http://www.w3.org/2000/svg">
  <g fill="#FF6363">
    <path
          d="M39.273 38.998c-7.086 0-13.259-4.843-16.048-7.529l-1.508 2.246-3.017-1.894 4.114-6.033 1.555 1.762c.091.088 7.314 8.19 15.315 7.926 3.886-.133 7.407-2.246 10.515-6.297l1.052-1.41 2.88 2.07-1.051 1.41c-3.795 4.975-8.275 7.574-13.304 7.75h-.503z" />
    <path
          d="M47.73 21.078c.985 0 1.783-.77 1.783-1.718s-.798-1.716-1.782-1.716c-.985 0-1.783.768-1.783 1.716s.798 1.718 1.782 1.718zm-16.687 0c.985 0 1.784-.77 1.784-1.718s-.798-1.716-1.784-1.716c-.984 0-1.783.768-1.783 1.716s.798 1.718 1.783 1.718zm-5.12-10.876l-2.88-2.07c2.194-2.818 5.211-4.8 8.732-5.724a16.643 16.643 0 0111.2 1.056l-1.6 3.127a12.838 12.838 0 00-8.686-.836C29.992 6.503 27.614 8 25.922 10.2z" />
    <path
          d="M48.828 3.156c-.594 1.498-1.372 2.51-2.194 3.259.96-1.365 1.6-3.126 1.69-5.372L45.903.998c-.184 5.857-5.12 6.693-6.63 6.826l.23 2.333c.685.088 1.508.176 2.468.176 2.972 0 6.904-.924 9.144-6.296l-2.286-.88z" />
  </g>
  <path d="M20.802 21.078c0 5.151-2.468 8.717-8.047 8.717-1.783 0-3.931-.616-4.709-2.42h-.182l-.64 1.892H1.966V11.215H0V6.283h7.955v8.454h.138c.868-1.497 2.605-2.29 4.8-2.29 4.023.044 7.91 2.73 7.91 8.63zm-6.035 0c0-2.114-1.737-3.567-3.43-3.567-1.827 0-3.382 1.761-3.382 3.567 0 2.641 1.829 3.874 3.566 3.874 1.554 0 3.246-1.453 3.246-3.874zm23.5-1.41c0 3.963-3.52 7.222-7.818 7.222s-7.772-3.215-7.772-7.221c0-3.964 3.474-7.178 7.772-7.178 4.297 0 7.818 3.214 7.818 7.178zm-4.984.089c0-1.673-1.28-3.039-2.833-3.039-1.556 0-2.836 1.365-2.836 3.039 0 1.673 1.28 3.082 2.835 3.082 1.554 0 2.834-1.41 2.834-3.082zM55 19.669c0 3.962-3.52 7.22-7.818 7.22-4.297 0-7.772-3.214-7.772-7.22 0-3.964 3.475-7.178 7.772-7.178 4.297 0 7.818 3.214 7.818 7.178zm-4.983.088c0-1.673-1.28-3.039-2.835-3.039-1.554 0-2.834 1.365-2.834 3.039 0 1.673 1.28 3.082 2.833 3.082 1.556 0 2.836-1.41 2.836-3.082zm38.907 4.58v4.973h-9.602v-4.974h1.784v-3.258c0-2.246-.869-3.566-2.743-3.566-2.058 0-2.926 1.276-2.926 3.522v3.302h1.828v4.976h-9.602v-4.976h1.83v-3.258c0-2.29-.732-3.566-2.789-3.566-1.92 0-2.788 1.276-2.788 3.566v3.258h1.828v4.976h-9.602v-4.976h1.737v-6.34h-1.737V13.02h6.995l.732 1.761h.183c.823-1.496 2.926-2.289 4.708-2.289 2.47 0 3.887.573 5.075 2.378h.184c1.096-1.541 3.154-2.378 5.896-2.378 4.208 0 7.087 2.378 7.087 8.587v3.257h1.922zm21.076 0v4.973h-7.224l-.731-1.937h-.137c-.778 1.761-2.88 2.421-4.663 2.421-5.533 0-8.002-3.61-8.002-8.717 0-5.857 3.979-8.587 8.002-8.587 1.828 0 3.383.837 4.297 2.29h.092l1.28-1.762h5.12V24.38H110v-.044.001zm-7.91-3.26c0-2.113-1.554-3.523-3.428-3.523-1.875 0-3.383 1.454-3.383 3.523 0 2.422 1.6 3.831 3.154 3.831 2.057 0 3.657-1.365 3.657-3.83v-.001z"
        fill="#fff" />
</svg>
