<svg width="29" height="28" fill="none" xmlns="http://www.w3.org/2000/svg">
  <path class="fill-light" d="M29 26c0 1-1 2-2 2H2c-1 0-2-1-2-2V2c0-1 1-2 2-2h25c1 0 2 1 2 2v24z" />
  <path class="fill-secondary"
        d="M24.98 9.88c-.05-1.063-.23-1.793-.489-2.426a4.865 4.865 0 00-1.214-1.774 5.2 5.2 0 00-1.858-1.153c-.669-.246-1.432-.418-2.548-.464C17.747 4.012 17.39 4 14.54 4s-3.208.012-4.328.059c-1.116.046-1.883.218-2.548.464A5.155 5.155 0 005.801 5.68a4.908 4.908 0 00-1.21 1.77c-.259.637-.44 1.363-.488 2.426-.054 1.07-.066 1.41-.066 4.126 0 2.715.012 3.055.061 4.122.05 1.063.23 1.793.489 2.426.266.672.68 1.274 1.214 1.774a5.2 5.2 0 001.858 1.152c.669.247 1.432.419 2.548.465 1.12.047 1.477.059 4.328.059s3.208-.012 4.328-.059c1.116-.046 1.883-.218 2.547-.464 1.412-.52 2.527-1.583 3.073-2.927.258-.637.439-1.364.488-2.426.05-1.067.062-1.407.062-4.122s-.004-3.055-.054-4.122zm-1.892 8.166c-.045.977-.217 1.504-.36 1.855a3.405 3.405 0 01-1.995 1.9c-.369.136-.927.3-1.948.343-1.108.047-1.44.059-4.242.059s-3.138-.012-4.242-.059c-1.025-.043-1.58-.207-1.948-.344a3.251 3.251 0 01-1.207-.746 3.099 3.099 0 01-.783-1.148c-.144-.352-.316-.883-.361-1.856-.05-1.055-.062-1.372-.062-4.04 0-2.669.013-2.99.062-4.04.045-.977.217-1.504.36-1.856a3.03 3.03 0 01.789-1.149 3.28 3.28 0 011.206-.746c.369-.137.927-.3 1.948-.344 1.108-.046 1.44-.058 4.242-.058 2.806 0 3.138.012 4.242.058 1.026.043 1.58.207 1.949.344.455.16.87.414 1.206.746.348.325.615.715.783 1.15.144.35.316.882.361 1.855.05 1.055.062 1.371.062 4.04 0 2.668-.012 2.98-.062 4.036z" />
  <path class="fill-secondary"
        d="M14.539 8.864c-2.978 0-5.395 2.301-5.395 5.138 0 2.836 2.417 5.138 5.395 5.138 2.978 0 5.394-2.302 5.394-5.138 0-2.837-2.416-5.138-5.394-5.138zm0 8.47c-1.932 0-3.5-1.492-3.5-3.332 0-1.84 1.568-3.333 3.5-3.333s3.5 1.493 3.5 3.333-1.568 3.333-3.5 3.333zM21.406 8.661c0 .662-.563 1.2-1.26 1.2-.695 0-1.259-.538-1.259-1.2 0-.662.564-1.2 1.26-1.2.696 0 1.26.538 1.26 1.2z" />
</svg>
